<svg xmlns="http://www.w3.org/2000/svg" width="1200" height="380" viewBox="0 0 1200 380" role="img" aria-labelledby="title desc">
  <title id="title">Luomo anime signal</title>
  <desc id="desc">A bright anime-inspired banner combining music, moonlight, star trails, open worlds, and code.</desc>

  <rect width="1200" height="380" fill="#f8fbff"/>
  <rect width="1200" height="38" fill="#242a38"/>
  <rect y="348" width="1200" height="32" fill="#242a38"/>
  <rect x="0" y="38" width="12" height="310" fill="#ff78ad"/>
  <rect x="12" y="38" width="4" height="310" fill="#ffd85c"/>

  <g stroke="#e3eaf2" stroke-width="1">
    <path d="M16 94H1200M16 150H1200M16 206H1200M16 262H1200M16 318H1200"/>
    <path d="M196 38V348M386 38V348M576 38V348M766 38V348M956 38V348M1146 38V348"/>
  </g>

  <rect x="776" y="68" width="382" height="244" rx="7" fill="#ffffff"/>

  <g font-family="Inter, Segoe UI, Arial, sans-serif" letter-spacing="0">
    <text x="30" y="25" fill="#f8fbff" font-size="13" font-weight="700">LUOMO // ANIME SIGNAL 07</text>
    <text x="1061" y="25" fill="#65d7e7" font-size="13">SYNC: ONLINE</text>

    <text x="72" y="104" fill="#e44f8b" font-size="15" font-weight="700">WELCOME TO MY LITTLE UNIVERSE</text>
    <text x="68" y="184" fill="#242a38" font-size="82" font-weight="800">LUOMO</text>
    <text x="73" y="223" fill="#657184" font-size="23">anime, code &amp; starlit worlds</text>

    <text x="74" y="280" fill="#242a38" font-size="14" font-weight="700">BUILD</text>
    <text x="152" y="280" fill="#ff78ad" font-size="14">/</text>
    <text x="181" y="280" fill="#242a38" font-size="14" font-weight="700">WATCH</text>
    <text x="275" y="280" fill="#65d7e7" font-size="14">/</text>
    <text x="304" y="280" fill="#242a38" font-size="14" font-weight="700">PLAY</text>

    <text x="802" y="91" fill="#e44f8b" font-size="13" font-weight="700">CURRENT FREQUENCIES</text>
    <text x="1109" y="132" fill="#967587" font-size="12">01</text>
    <text x="1109" y="174" fill="#657184" font-size="12">02</text>
    <text x="1109" y="216" fill="#9a7a22" font-size="12">03</text>
    <text x="1109" y="258" fill="#438f88" font-size="12">04</text>
    <text x="802" y="300" fill="#657184" font-size="14">four worlds, one always-online playlist</text>

    <text x="30" y="369" fill="#c8d0dc" font-size="12">ANIME</text>
    <text x="104" y="369" fill="#ff9bc3" font-size="12">MUSIC</text>
    <text x="176" y="369" fill="#65d7e7" font-size="12">MOONLIGHT</text>
    <text x="286" y="369" fill="#ffd85c" font-size="12">STARLIGHT</text>
    <text x="392" y="369" fill="#8ed7c8" font-size="12">OPEN WORLDS</text>
    <text x="1077" y="369" fill="#f8fbff" font-size="12">ON AIR</text>
  </g>

  <g fill="none">
    <path d="M72 310H188L205 293L224 326L244 301L261 310H359" stroke="#ff78ad" stroke-width="4"/>
    <path d="M72 321H359" stroke="#ffd85c" stroke-width="2"/>
    <circle cx="395" cy="310" r="17" stroke="#242a38" stroke-width="3"/>
    <path d="M411 304L478 280" stroke="#242a38" stroke-width="6"/>
    <path d="M474 273L489 289M468 280L483 296" stroke="#65d7e7" stroke-width="3"/>

    <rect x="776" y="68" width="382" height="244" rx="7" stroke="#242a38" stroke-width="2"/>
    <path d="M776 108H1158M816 145H1142M816 187H1142M816 229H1142M816 271H1142" stroke="#e3eaf2"/>
    <path d="M842 127H878L888 117L899 137L910 124H1038" stroke="#ff78ad" stroke-width="3"/>
    <circle cx="1052" cy="127" r="5" stroke="#242a38" stroke-width="2"/>
    <ellipse cx="888" cy="165" rx="44" ry="12" stroke="#65d7e7" stroke-width="3"/>
    <path d="M928 165H1039" stroke="#65d7e7" stroke-width="3"/>
    <path d="M842 219C892 190 955 190 1039 210M842 225C902 201 965 202 1039 217" stroke="#d5aa3c" stroke-width="2"/>
    <path d="M842 249C867 233 905 238 913 255C921 272 897 279 879 268M932 255H1039" stroke="#73cbbd" stroke-width="3"/>
  </g>

  <g>
    <path d="M798 120C810 107 824 114 820 128C810 134 802 131 798 120Z" fill="#ff78ad"/>
    <circle cx="809" cy="164" r="10" fill="#65d7e7"/>
    <circle cx="814" cy="160" r="10" fill="#ffffff"/>
    <path d="M809 198L813 207L822 211L813 215L809 224L805 215L796 211L805 207Z" fill="#ffd85c"/>
    <path d="M799 256C805 244 818 244 824 253C815 250 808 255 806 264C803 263 801 260 799 256Z" fill="#73cbbd"/>

    <circle cx="698" cy="92" r="30" fill="#65d7e7" opacity="0.34"/>
    <circle cx="711" cy="83" r="30" fill="#f8fbff"/>
    <path d="M649 93C682 62 730 65 752 96" fill="none" stroke="#ff78ad" stroke-width="3"/>
    <circle cx="751" cy="96" r="5" fill="#ffd85c"/>
    <path d="M564 75L569 86L580 91L569 96L564 107L559 96L548 91L559 86Z" fill="#ffd85c"/>
    <path d="M702 289L706 298L715 302L706 306L702 315L698 306L689 302L698 298Z" fill="#8f7cff"/>
  </g>
</svg>
